Cover: 
http://i1184.photobucket.com/albums/z332/alibaloch2/the-collection-of-sheikh-ahmad-deedats-6-vcd-pack-img-1531050.jpg

The Collection of Sheikh Ahmad Deedat's (6 VCD Pack)

Note: Only English Language


A Collection of (6) Famous Debates That Shacked The World


1 : VCD-1 - Al Quran Niracle of Miracles

2 : VCD-2 - Christian Missionaries at IPCI

3 : VCD-3 - Phrophet MOHANNAD ( PBUH ) The Natural Successor of Messiah

4 : VCD-4 - Islam The Mission of Truth and Peace

5 : VCD-5 - Is The Bible God's Word ?

6 : VCD-6 - Is The Jesus God ?



Special Thanks : Ibrahim Al Fozi


Please Seed After Download




Format                           : CDXA/MPEG-PS
Overall bit rate                 : 1 411 Kbps


ID                               : 224 (0xE0)
Format                           : MPEG Video
Format version                   : Version 1
Format settings, BVOP            : Yes
Format settings, Matrix          : Default
Duration                         : 1h 16mn
Bit rate mode                    : Constant
Bit rate                         : 1 150 Kbps
Width                            : 352 pixels
Height                           : 288 pixels
Display aspect ratio             : 4:3
Frame rate                       : 25.000 fps
Standard                         : PAL
Color space                      : YUV
Bit depth                        : 8 bits
Scan type                        : Progressive
Compression mode                 : Lossy
Bits/(Pixel*Frame)               : 0.454
Stream size                      : 630 MiB (82%)

Audio
ID                               : 192 (0xC0)
Format                           : MPEG Audio
Format version                   : Version 1
Format profile                   : Layer 2
Duration                         : 1h 16mn
Bit rate mode                    : Constant
Bit rate                         : 224 Kbps
Channel(s)                       : 2 channels
Sampling rate                    : 44.1 KHz
Compression mode                 : Lossy
Stream size                      : 122 MiB (16%)

Video: MPEG1 Video 352x288 (4:3) 25.00fps 1150kbps [Video]
Audio: MPEG Audio 44100Hz stereo 224kbps [Audio]
 
http://i1137.photobucket.com/albums/n509/farooq3204/VCD-1.jpg
 
http://i1137.photobucket.com/albums/n509/farooq3204/VCD-2.jpg
 
http://i1137.photobucket.com/albums/n509/farooq3204/VCD-3.jpg
 
http://i1137.photobucket.com/albums/n509/farooq3204/VCD-4.jpg
 
http://i1137.photobucket.com/albums/n509/farooq3204/VCD-5.jpg
 
http://i1137.photobucket.com/albums/n509/farooq3204/VCD-6.jpg